<svg width="160" height="55" viewBox="0 0 160 55" fill="none" xmlns="http://www.w3.org/2000/svg">
<path d="M43.9964 35.5703C43.0643 33.8116 37.2567 30.7481 32.668 29.6135C30.2303 28.9895 25.4265 27.7981 21.985 26.9472C15.1019 25.2452 10.8 22.8058 8.57734 19.3452C7.14337 17.1327 5.27921 10.8923 5.9245 10.3817C6.1396 10.2116 7.50187 10.8923 8.93584 11.8568C12.0189 14.0125 14.7434 15.0904 25.3548 18.1539C33.7435 20.5933 36.8982 22.2385 40.5549 26.0395C42.9926 28.5356 45.4304 33.8683 44.8568 35.627C44.57 36.5347 44.57 36.5347 43.9964 35.5703Z" fill="#009CAB"/>
<path d="M44.3549 43.3424C42.4907 41.6405 37.7586 40.3357 30.7322 39.7116C12.6642 38.0664 10.5849 37.4991 5.85281 33.2443C3.34336 30.9751 -0.74345 23.6 0.116932 22.9193C0.260329 22.7491 1.19241 23.2029 2.19619 23.827C5.92451 26.1529 14.6717 28.9327 22.7736 30.4077C36.0379 32.7904 40.6266 35.0029 44.4266 40.903C46.0039 43.4558 46.0039 44.9309 44.3549 43.3424Z" fill="#00858A"/>
<path d="M40.053 21.6145C38.2605 20.1962 34.7473 18.1539 32.1661 17.076C25.7133 14.3529 22.3435 12.1971 20.551 9.47406C18.9736 6.9779 17.8264 0 19.0453 0C19.4038 0 20.6227 0.794232 21.8416 1.75866C22.9887 2.72308 26.502 4.87885 29.6567 6.46732C38.4756 11.0625 42.5624 15.3741 43.5662 21.3875C43.853 23.0327 43.9247 24.3375 43.7096 24.2808C43.4945 24.2808 41.8454 23.0327 40.053 21.6145Z" fill="#7EC0D5"/>
<path d="M60.1328 29.0703H55.8438V26.1055H60.1328C60.7656 26.1055 61.2734 26 61.6562 25.7891C62.0469 25.5781 62.332 25.2891 62.5117 24.9219C62.6992 24.5469 62.793 24.125 62.793 23.6562C62.793 23.1719 62.6992 22.7227 62.5117 22.3086C62.332 21.8867 62.0469 21.5469 61.6562 21.2891C61.2734 21.0312 60.7656 20.9023 60.1328 20.9023H57.2266V35H53.4062V17.9375H60.1328C61.4922 17.9375 62.6562 18.1836 63.625 18.6758C64.6016 19.168 65.3477 19.8438 65.8633 20.7031C66.3867 21.5547 66.6484 22.5312 66.6484 23.6328C66.6484 24.7344 66.3867 25.6914 65.8633 26.5039C65.3477 27.3164 64.6016 27.9492 63.625 28.4023C62.6562 28.8477 61.4922 29.0703 60.1328 29.0703ZM76.2227 31.9414V22.3203H79.9023V35H76.457L76.2227 31.9414ZM76.6094 29.3516L77.6172 29.3281C77.6172 30.1797 77.5156 30.9648 77.3125 31.6836C77.1172 32.4023 76.8203 33.0273 76.4219 33.5586C76.0312 34.0898 75.543 34.5039 74.957 34.8008C74.3789 35.0898 73.7031 35.2344 72.9297 35.2344C72.3047 35.2344 71.7305 35.1484 71.207 34.9766C70.6914 34.7969 70.2461 34.5195 69.8711 34.1445C69.4961 33.7617 69.207 33.2734 69.0039 32.6797C68.8008 32.0781 68.6992 31.3594 68.6992 30.5234V22.3203H72.3555V30.5469C72.3555 30.875 72.3945 31.1562 72.4727 31.3906C72.5586 31.6172 72.6719 31.8047 72.8125 31.9531C72.9609 32.1016 73.1406 32.2109 73.3516 32.2812C73.5703 32.3516 73.8086 32.3867 74.0664 32.3867C74.7148 32.3867 75.2227 32.2539 75.5898 31.9883C75.9648 31.7148 76.2266 31.3516 76.375 30.8984C76.5312 30.4375 76.6094 29.9219 76.6094 29.3516ZM85.9492 25.2734V35H82.293V22.3203H85.7266L85.9492 25.2734ZM89.7344 22.2266L89.6758 25.6367C89.5195 25.6133 89.3164 25.5938 89.0664 25.5781C88.8164 25.5547 88.6016 25.543 88.4219 25.543C87.9531 25.543 87.5469 25.6016 87.2031 25.7188C86.8672 25.8281 86.5859 25.9922 86.3594 26.2109C86.1406 26.4297 85.9766 26.7031 85.8672 27.0312C85.7578 27.3516 85.7031 27.7227 85.7031 28.1445L85.0117 27.8047C85.0117 26.9688 85.0938 26.2031 85.2578 25.5078C85.4219 24.8125 85.6602 24.2109 85.9727 23.7031C86.2852 23.1875 86.668 22.7891 87.1211 22.5078C87.5742 22.2266 88.0898 22.0859 88.668 22.0859C88.8555 22.0859 89.0469 22.0977 89.2422 22.1211C89.4375 22.1445 89.6016 22.1797 89.7344 22.2266ZM96.9766 35.2344C95.9688 35.2344 95.0664 35.0742 94.2695 34.7539C93.4727 34.4336 92.7969 33.9922 92.2422 33.4297C91.6953 32.8594 91.2773 32.2031 90.9883 31.4609C90.6992 30.7188 90.5547 29.9258 90.5547 29.082V28.6367C90.5547 27.6914 90.6875 26.8203 90.9531 26.0234C91.2188 25.2266 91.6055 24.5352 92.1133 23.9492C92.6289 23.3555 93.2617 22.8984 94.0117 22.5781C94.7617 22.25 95.6172 22.0859 96.5781 22.0859C97.4766 22.0859 98.2773 22.2344 98.9805 22.5312C99.6836 22.8203 100.277 23.2383 100.762 23.7852C101.246 24.3242 101.613 24.9766 101.863 25.7422C102.121 26.5 102.25 27.3516 102.25 28.2969V29.7969H92.0312V27.4414H98.6641V27.1602C98.6641 26.7148 98.582 26.3242 98.418 25.9883C98.2617 25.6523 98.0273 25.3945 97.7148 25.2148C97.4102 25.0273 97.0234 24.9336 96.5547 24.9336C96.1094 24.9336 95.7383 25.0273 95.4414 25.2148C95.1445 25.4023 94.9062 25.668 94.7266 26.0117C94.5547 26.3477 94.4297 26.7422 94.3516 27.1953C94.2734 27.6406 94.2344 28.1211 94.2344 28.6367V29.082C94.2344 29.5742 94.3008 30.0234 94.4336 30.4297C94.5664 30.8359 94.7617 31.1836 95.0195 31.4727C95.2773 31.7617 95.5898 31.9883 95.957 32.1523C96.3242 32.3164 96.7422 32.3984 97.2109 32.3984C97.7891 32.3984 98.3398 32.2891 98.8633 32.0703C99.3867 31.8438 99.8398 31.4922 100.223 31.0156L101.934 32.9727C101.676 33.3477 101.312 33.7109 100.844 34.0625C100.383 34.4062 99.8281 34.6875 99.1797 34.9062C98.5312 35.125 97.7969 35.2344 96.9766 35.2344ZM112.164 17.9375V35H108.355V17.9375H112.164ZM117.355 17.9375V20.9023H103.27V17.9375H117.355ZM123.895 31.9766V26.5391C123.895 26.1562 123.836 25.8281 123.719 25.5547C123.602 25.2812 123.418 25.0664 123.168 24.9102C122.918 24.7539 122.594 24.6758 122.195 24.6758C121.859 24.6758 121.566 24.7344 121.316 24.8516C121.074 24.9688 120.887 25.1367 120.754 25.3555C120.629 25.5742 120.566 25.8438 120.566 26.1641H116.91C116.91 25.5938 117.039 25.0625 117.297 24.5703C117.555 24.0781 117.922 23.6445 118.398 23.2695C118.883 22.8945 119.461 22.6055 120.133 22.4023C120.805 22.1914 121.559 22.0859 122.395 22.0859C123.387 22.0859 124.27 22.2539 125.043 22.5898C125.824 22.918 126.441 23.4141 126.895 24.0781C127.348 24.7344 127.574 25.5625 127.574 26.5625V31.8711C127.574 32.6367 127.617 33.2383 127.703 33.6758C127.797 34.1055 127.93 34.4805 128.102 34.8008V35H124.41C124.238 34.6328 124.109 34.1797 124.023 33.6406C123.938 33.0938 123.895 32.5391 123.895 31.9766ZM124.352 27.2656L124.375 29.2812H122.559C122.152 29.2812 121.801 29.332 121.504 29.4336C121.215 29.5352 120.98 29.6758 120.801 29.8555C120.621 30.0273 120.488 30.2305 120.402 30.4648C120.324 30.6914 120.285 30.9414 120.285 31.2148C120.285 31.4727 120.348 31.707 120.473 31.918C120.598 32.1211 120.77 32.2812 120.988 32.3984C121.207 32.5156 121.461 32.5742 121.75 32.5742C122.227 32.5742 122.633 32.4805 122.969 32.293C123.312 32.1055 123.578 31.8789 123.766 31.6133C123.953 31.3398 124.047 31.0859 124.047 30.8516L124.926 32.375C124.785 32.6875 124.613 33.0117 124.41 33.3477C124.207 33.6758 123.949 33.9844 123.637 34.2734C123.324 34.5547 122.945 34.7852 122.5 34.9648C122.062 35.1445 121.535 35.2344 120.918 35.2344C120.121 35.2344 119.398 35.0742 118.75 34.7539C118.102 34.4258 117.582 33.9766 117.191 33.4062C116.809 32.8359 116.617 32.1797 116.617 31.4375C116.617 30.7734 116.738 30.1836 116.98 29.668C117.223 29.1523 117.586 28.7148 118.07 28.3555C118.562 27.9961 119.18 27.7266 119.922 27.5469C120.664 27.3594 121.531 27.2656 122.523 27.2656H124.352ZM136.727 31.4727C136.727 31.2383 136.652 31.0312 136.504 30.8516C136.363 30.6719 136.105 30.5078 135.73 30.3594C135.363 30.2109 134.844 30.0625 134.172 29.9141C133.539 29.7812 132.949 29.6094 132.402 29.3984C131.855 29.1797 131.379 28.918 130.973 28.6133C130.566 28.3008 130.25 27.9336 130.023 27.5117C129.797 27.082 129.684 26.5938 129.684 26.0469C129.684 25.5156 129.797 25.0117 130.023 24.5352C130.258 24.0586 130.594 23.6367 131.031 23.2695C131.477 22.9023 132.016 22.6133 132.648 22.4023C133.289 22.1914 134.016 22.0859 134.828 22.0859C135.945 22.0859 136.91 22.2617 137.723 22.6133C138.535 22.957 139.16 23.4414 139.598 24.0664C140.035 24.6836 140.254 25.3906 140.254 26.1875H136.598C136.598 25.8594 136.535 25.5742 136.41 25.332C136.285 25.0898 136.094 24.9023 135.836 24.7695C135.578 24.6289 135.238 24.5586 134.816 24.5586C134.488 24.5586 134.199 24.6172 133.949 24.7344C133.707 24.8438 133.516 24.9961 133.375 25.1914C133.242 25.3867 133.176 25.6133 133.176 25.8711C133.176 26.0508 133.215 26.2148 133.293 26.3633C133.379 26.5039 133.508 26.6367 133.68 26.7617C133.859 26.8789 134.09 26.9844 134.371 27.0781C134.66 27.1719 135.012 27.2617 135.426 27.3477C136.309 27.5117 137.113 27.7422 137.84 28.0391C138.574 28.3359 139.16 28.7461 139.598 29.2695C140.043 29.793 140.266 30.4844 140.266 31.3438C140.266 31.9062 140.137 32.4219 139.879 32.8906C139.629 33.3594 139.266 33.7695 138.789 34.1211C138.312 34.4727 137.742 34.7461 137.078 34.9414C136.414 35.1367 135.664 35.2344 134.828 35.2344C133.633 35.2344 132.621 35.0195 131.793 34.5898C130.965 34.1602 130.34 33.6211 129.918 32.9727C129.504 32.3164 129.297 31.6445 129.297 30.957H132.73C132.746 31.3789 132.852 31.7227 133.047 31.9883C133.25 32.2539 133.512 32.4492 133.832 32.5742C134.152 32.6914 134.512 32.75 134.91 32.75C135.309 32.75 135.641 32.6953 135.906 32.5859C136.172 32.4766 136.375 32.3281 136.516 32.1406C136.656 31.9453 136.727 31.7227 136.727 31.4727ZM145.984 16.9883V35H142.316V16.9883H145.984ZM154.035 22.3203L148.516 28.6953L145.598 31.625L144.133 29.1523L146.5 26.0938L149.629 22.3203H154.035ZM150.168 35L146.594 29.1758L149.219 27.125L154.363 35H150.168Z" fill="#009CAB"/>
</svg>
