<svg width="16" height="16" viewBox="0 0 16 16" fill="none" xmlns="http://www.w3.org/2000/svg">
<path fill-rule="evenodd" clip-rule="evenodd" d="M6.0082 0.0136358C3.05212 0.330848 0.683482 2.49765 0.100413 5.41796C-0.033471 6.0884 -0.033471 7.22586 0.100413 7.8963C0.641537 10.6065 2.67924 12.6465 5.40362 13.2053C6.07625 13.3433 7.20949 13.346 7.88462 13.2111C8.89382 13.0096 9.78089 12.6238 10.5689 12.0437L10.8767 11.8172L12.9456 13.882C15.1872 16.1194 15.0988 16.0464 15.4815 15.9746C15.6867 15.9361 15.9361 15.6868 15.9746 15.4816C16.0464 15.0991 16.1193 15.1874 13.8827 12.9477L11.8186 10.8808L12.0548 10.5516C12.6474 9.72588 13.0099 8.89016 13.2102 7.8878C13.3423 7.22632 13.3416 6.08436 13.2085 5.41796C12.6694 2.71753 10.6106 0.649561 7.92619 0.111967C7.51766 0.0301425 6.39205 -0.0275477 6.0082 0.0136358ZM7.78026 1.44226C8.82873 1.68123 9.63808 2.12996 10.4125 2.90164C11.1856 3.67208 11.6602 4.54294 11.8914 5.61504C11.9982 6.11045 11.9982 7.20381 11.8914 7.69922C11.6605 8.77007 11.1864 9.64026 10.4125 10.414C9.63867 11.1876 8.7699 11.6607 7.69687 11.8928C7.17109 12.0066 6.06362 11.9979 5.54492 11.8759C4.46426 11.6218 3.66129 11.1786 2.89651 10.414C2.12252 9.64026 1.64848 8.77007 1.41757 7.69922C1.31075 7.20381 1.31075 6.11045 1.41757 5.61504C1.65048 4.53485 2.11209 3.68838 2.89793 2.90023C3.65754 2.13842 4.49311 1.6764 5.52408 1.44818C6.02872 1.33647 6.13958 1.32767 6.82126 1.34559C7.21683 1.35602 7.54835 1.3894 7.78026 1.44226Z" fill="#222222" fill-opacity="0.5"/>
</svg>
